<mxfile host="app.diagrams.net" modified="2023-07-17T13:33:25.080Z" agent="Mozilla/5.0 (Windows NT 10.0; Win64; x64) AppleWebKit/537.36 (KHTML, like Gecko) Chrome/113.0.0.0 Safari/537.36" etag="ZvZx-1KOMRWWa3vOVej4" version="21.6.2" type="device">
  <diagram name="Trang-1" id="EqyScVaXyak21YuMLXw3">
    <mxGraphModel dx="2916" dy="1200" grid="1" gridSize="10" guides="1" tooltips="1" connect="1" arrows="1" fold="1" page="1" pageScale="1" pageWidth="827" pageHeight="1169" background="none" math="0" shadow="1">
      <root>
        <mxCell id="0" />
        <mxCell id="1" parent="0" />
        <mxCell id="JjqBUWq5hYoa13mlnjGS-1" value="&lt;span style=&quot;font-size: 18px;&quot;&gt;&lt;b&gt;Books&lt;/b&gt;&lt;/span&gt;" style="rounded=0;whiteSpace=wrap;html=1;" parent="1" vertex="1">
          <mxGeometry x="280" y="485" width="120" height="60" as="geometry" />
        </mxCell>
        <mxCell id="JjqBUWq5hYoa13mlnjGS-2" value="&lt;font style=&quot;font-size: 18px;&quot;&gt;&lt;b&gt;Staffs&lt;/b&gt;&lt;/font&gt;" style="rounded=0;whiteSpace=wrap;html=1;" parent="1" vertex="1">
          <mxGeometry x="770" y="860" width="120" height="60" as="geometry" />
        </mxCell>
        <mxCell id="JjqBUWq5hYoa13mlnjGS-3" value="&lt;font style=&quot;font-size: 18px;&quot;&gt;&lt;b&gt;Authors&lt;/b&gt;&lt;/font&gt;" style="rounded=0;whiteSpace=wrap;html=1;" parent="1" vertex="1">
          <mxGeometry x="280" y="850" width="120" height="60" as="geometry" />
        </mxCell>
        <mxCell id="JjqBUWq5hYoa13mlnjGS-4" value="&lt;font style=&quot;font-size: 18px;&quot;&gt;&lt;b&gt;Users&lt;/b&gt;&lt;/font&gt;" style="rounded=0;whiteSpace=wrap;html=1;" parent="1" vertex="1">
          <mxGeometry x="1241" y="130" width="120" height="60" as="geometry" />
        </mxCell>
        <mxCell id="JjqBUWq5hYoa13mlnjGS-6" value="&lt;font style=&quot;font-size: 18px;&quot;&gt;Book_ID&lt;/font&gt;" style="ellipse;whiteSpace=wrap;html=1;" parent="1" vertex="1">
          <mxGeometry x="10" y="510" width="120" height="80" as="geometry" />
        </mxCell>
        <mxCell id="JjqBUWq5hYoa13mlnjGS-8" value="&lt;font style=&quot;font-size: 18px;&quot;&gt;Book_Name&lt;/font&gt;" style="ellipse;whiteSpace=wrap;html=1;" parent="1" vertex="1">
          <mxGeometry x="10" y="610" width="120" height="80" as="geometry" />
        </mxCell>
        <mxCell id="JjqBUWq5hYoa13mlnjGS-9" value="&lt;font style=&quot;font-size: 18px;&quot;&gt;Quantity&lt;/font&gt;" style="ellipse;whiteSpace=wrap;html=1;" parent="1" vertex="1">
          <mxGeometry x="10" y="240" width="120" height="80" as="geometry" />
        </mxCell>
        <mxCell id="JjqBUWq5hYoa13mlnjGS-10" value="&lt;font style=&quot;font-size: 18px;&quot;&gt;Location&lt;/font&gt;" style="ellipse;whiteSpace=wrap;html=1;" parent="1" vertex="1">
          <mxGeometry x="10" y="420" width="120" height="80" as="geometry" />
        </mxCell>
        <mxCell id="JjqBUWq5hYoa13mlnjGS-11" value="&lt;font style=&quot;font-size: 18px;&quot;&gt;A_First_Name&lt;/font&gt;" style="ellipse;whiteSpace=wrap;html=1;" parent="1" vertex="1">
          <mxGeometry x="120" y="990" width="120" height="80" as="geometry" />
        </mxCell>
        <mxCell id="JjqBUWq5hYoa13mlnjGS-12" value="&lt;font style=&quot;font-size: 18px;&quot;&gt;Author_ID&lt;/font&gt;" style="ellipse;whiteSpace=wrap;html=1;" parent="1" vertex="1">
          <mxGeometry x="440" y="990" width="120" height="80" as="geometry" />
        </mxCell>
        <mxCell id="JjqBUWq5hYoa13mlnjGS-13" value="&lt;font style=&quot;font-size: 18px;&quot;&gt;A_Last_Name&lt;/font&gt;" style="ellipse;whiteSpace=wrap;html=1;" parent="1" vertex="1">
          <mxGeometry x="280" y="990" width="120" height="80" as="geometry" />
        </mxCell>
        <mxCell id="JjqBUWq5hYoa13mlnjGS-15" value="&lt;font style=&quot;font-size: 18px;&quot;&gt;User_ID&lt;/font&gt;" style="ellipse;whiteSpace=wrap;html=1;" parent="1" vertex="1">
          <mxGeometry x="1140" width="120" height="80" as="geometry" />
        </mxCell>
        <mxCell id="JjqBUWq5hYoa13mlnjGS-16" value="&lt;font style=&quot;font-size: 18px;&quot;&gt;U_Date_&lt;br&gt;of_Birth&lt;/font&gt;" style="ellipse;whiteSpace=wrap;html=1;" parent="1" vertex="1">
          <mxGeometry x="1530" width="120" height="80" as="geometry" />
        </mxCell>
        <mxCell id="JjqBUWq5hYoa13mlnjGS-17" value="&lt;font style=&quot;font-size: 18px;&quot;&gt;U_Gmail&lt;/font&gt;" style="ellipse;whiteSpace=wrap;html=1;" parent="1" vertex="1">
          <mxGeometry x="1530" y="90" width="120" height="80" as="geometry" />
        </mxCell>
        <mxCell id="JjqBUWq5hYoa13mlnjGS-18" value="&lt;font style=&quot;font-size: 18px;&quot;&gt;U_First_Name&lt;/font&gt;" style="ellipse;whiteSpace=wrap;html=1;" parent="1" vertex="1">
          <mxGeometry x="1270" width="120" height="80" as="geometry" />
        </mxCell>
        <mxCell id="JjqBUWq5hYoa13mlnjGS-20" value="&lt;font style=&quot;font-size: 18px;&quot;&gt;U_Phone_&lt;br&gt;Number&lt;/font&gt;" style="ellipse;whiteSpace=wrap;html=1;" parent="1" vertex="1">
          <mxGeometry x="1530" y="180" width="120" height="80" as="geometry" />
        </mxCell>
        <mxCell id="JjqBUWq5hYoa13mlnjGS-21" value="&lt;font style=&quot;font-size: 18px;&quot;&gt;Address&lt;/font&gt;" style="ellipse;whiteSpace=wrap;html=1;" parent="1" vertex="1">
          <mxGeometry x="1530" y="270" width="120" height="80" as="geometry" />
        </mxCell>
        <mxCell id="JjqBUWq5hYoa13mlnjGS-22" value="&lt;font style=&quot;font-size: 18px;&quot;&gt;U_Last_Name&lt;/font&gt;" style="ellipse;whiteSpace=wrap;html=1;" parent="1" vertex="1">
          <mxGeometry x="1400" width="120" height="80" as="geometry" />
        </mxCell>
        <mxCell id="JjqBUWq5hYoa13mlnjGS-23" value="&lt;font style=&quot;font-size: 18px;&quot;&gt;Staff_ID&lt;/font&gt;" style="ellipse;whiteSpace=wrap;html=1;" parent="1" vertex="1">
          <mxGeometry x="600" y="990" width="120" height="80" as="geometry" />
        </mxCell>
        <mxCell id="JjqBUWq5hYoa13mlnjGS-24" value="&lt;font style=&quot;font-size: 18px;&quot;&gt;S_Date_&lt;br&gt;of_Birth&lt;/font&gt;" style="ellipse;whiteSpace=wrap;html=1;" parent="1" vertex="1">
          <mxGeometry x="1000" y="990" width="120" height="80" as="geometry" />
        </mxCell>
        <mxCell id="JjqBUWq5hYoa13mlnjGS-25" value="&lt;font style=&quot;font-size: 18px;&quot;&gt;S_First_Name&lt;/font&gt;" style="ellipse;whiteSpace=wrap;html=1;" parent="1" vertex="1">
          <mxGeometry x="730" y="990" width="120" height="80" as="geometry" />
        </mxCell>
        <mxCell id="JjqBUWq5hYoa13mlnjGS-26" value="&lt;font style=&quot;font-size: 18px;&quot;&gt;S_Last_Name&lt;/font&gt;" style="ellipse;whiteSpace=wrap;html=1;" parent="1" vertex="1">
          <mxGeometry x="860" y="990" width="120" height="80" as="geometry" />
        </mxCell>
        <mxCell id="JjqBUWq5hYoa13mlnjGS-28" value="&lt;font style=&quot;font-size: 18px;&quot;&gt;S_Phone_&lt;br&gt;Number&lt;/font&gt;" style="ellipse;whiteSpace=wrap;html=1;" parent="1" vertex="1">
          <mxGeometry x="1000" y="810" width="120" height="80" as="geometry" />
        </mxCell>
        <mxCell id="JjqBUWq5hYoa13mlnjGS-29" value="&lt;font style=&quot;font-size: 18px;&quot;&gt;S_Gmail&lt;/font&gt;" style="ellipse;whiteSpace=wrap;html=1;" parent="1" vertex="1">
          <mxGeometry x="1000" y="900" width="120" height="80" as="geometry" />
        </mxCell>
        <mxCell id="JjqBUWq5hYoa13mlnjGS-38" value="" style="endArrow=none;html=1;rounded=0;exitX=1;exitY=0.5;exitDx=0;exitDy=0;entryX=0;entryY=0.5;entryDx=0;entryDy=0;" parent="1" source="JjqBUWq5hYoa13mlnjGS-8" target="JjqBUWq5hYoa13mlnjGS-1" edge="1">
          <mxGeometry width="50" height="50" relative="1" as="geometry">
            <mxPoint x="610" y="250" as="sourcePoint" />
            <mxPoint x="660" y="200" as="targetPoint" />
          </mxGeometry>
        </mxCell>
        <mxCell id="JjqBUWq5hYoa13mlnjGS-40" value="" style="endArrow=none;html=1;rounded=0;exitX=1;exitY=0.5;exitDx=0;exitDy=0;entryX=0;entryY=0.5;entryDx=0;entryDy=0;" parent="1" source="JjqBUWq5hYoa13mlnjGS-6" target="JjqBUWq5hYoa13mlnjGS-1" edge="1">
          <mxGeometry width="50" height="50" relative="1" as="geometry">
            <mxPoint x="610" y="250" as="sourcePoint" />
            <mxPoint x="660" y="200" as="targetPoint" />
          </mxGeometry>
        </mxCell>
        <mxCell id="JjqBUWq5hYoa13mlnjGS-43" value="" style="endArrow=none;html=1;rounded=0;entryX=1;entryY=0.5;entryDx=0;entryDy=0;exitX=0;exitY=0.5;exitDx=0;exitDy=0;" parent="1" source="JjqBUWq5hYoa13mlnjGS-1" target="JjqBUWq5hYoa13mlnjGS-9" edge="1">
          <mxGeometry width="50" height="50" relative="1" as="geometry">
            <mxPoint x="610" y="250" as="sourcePoint" />
            <mxPoint x="660" y="200" as="targetPoint" />
          </mxGeometry>
        </mxCell>
        <mxCell id="JjqBUWq5hYoa13mlnjGS-44" value="" style="endArrow=none;html=1;rounded=0;entryX=1;entryY=0.5;entryDx=0;entryDy=0;exitX=0;exitY=0.5;exitDx=0;exitDy=0;" parent="1" source="JjqBUWq5hYoa13mlnjGS-1" target="JjqBUWq5hYoa13mlnjGS-10" edge="1">
          <mxGeometry width="50" height="50" relative="1" as="geometry">
            <mxPoint x="610" y="250" as="sourcePoint" />
            <mxPoint x="660" y="200" as="targetPoint" />
          </mxGeometry>
        </mxCell>
        <mxCell id="JjqBUWq5hYoa13mlnjGS-46" value="" style="endArrow=none;html=1;rounded=0;exitX=0.5;exitY=0;exitDx=0;exitDy=0;entryX=0.5;entryY=1;entryDx=0;entryDy=0;" parent="1" source="JjqBUWq5hYoa13mlnjGS-26" target="JjqBUWq5hYoa13mlnjGS-2" edge="1">
          <mxGeometry width="50" height="50" relative="1" as="geometry">
            <mxPoint x="1000" y="250" as="sourcePoint" />
            <mxPoint x="1050" y="200" as="targetPoint" />
          </mxGeometry>
        </mxCell>
        <mxCell id="JjqBUWq5hYoa13mlnjGS-47" value="" style="endArrow=none;html=1;rounded=0;exitX=0.5;exitY=0;exitDx=0;exitDy=0;entryX=0.5;entryY=1;entryDx=0;entryDy=0;" parent="1" source="JjqBUWq5hYoa13mlnjGS-25" target="JjqBUWq5hYoa13mlnjGS-2" edge="1">
          <mxGeometry width="50" height="50" relative="1" as="geometry">
            <mxPoint x="1000" y="250" as="sourcePoint" />
            <mxPoint x="1050" y="200" as="targetPoint" />
          </mxGeometry>
        </mxCell>
        <mxCell id="JjqBUWq5hYoa13mlnjGS-48" value="" style="endArrow=none;html=1;rounded=0;entryX=0.5;entryY=0;entryDx=0;entryDy=0;exitX=0.5;exitY=1;exitDx=0;exitDy=0;" parent="1" source="JjqBUWq5hYoa13mlnjGS-2" target="JjqBUWq5hYoa13mlnjGS-23" edge="1">
          <mxGeometry width="50" height="50" relative="1" as="geometry">
            <mxPoint x="1000" y="250" as="sourcePoint" />
            <mxPoint x="1050" y="200" as="targetPoint" />
          </mxGeometry>
        </mxCell>
        <mxCell id="JjqBUWq5hYoa13mlnjGS-49" value="" style="endArrow=none;html=1;rounded=0;exitX=0.5;exitY=0;exitDx=0;exitDy=0;entryX=0.5;entryY=1;entryDx=0;entryDy=0;" parent="1" source="JjqBUWq5hYoa13mlnjGS-13" target="JjqBUWq5hYoa13mlnjGS-3" edge="1">
          <mxGeometry width="50" height="50" relative="1" as="geometry">
            <mxPoint x="1000" y="250" as="sourcePoint" />
            <mxPoint x="1050" y="200" as="targetPoint" />
          </mxGeometry>
        </mxCell>
        <mxCell id="JjqBUWq5hYoa13mlnjGS-50" value="" style="endArrow=none;html=1;rounded=0;exitX=0.5;exitY=0;exitDx=0;exitDy=0;entryX=0.5;entryY=1;entryDx=0;entryDy=0;" parent="1" source="JjqBUWq5hYoa13mlnjGS-12" target="JjqBUWq5hYoa13mlnjGS-3" edge="1">
          <mxGeometry width="50" height="50" relative="1" as="geometry">
            <mxPoint x="1000" y="250" as="sourcePoint" />
            <mxPoint x="1050" y="200" as="targetPoint" />
          </mxGeometry>
        </mxCell>
        <mxCell id="JjqBUWq5hYoa13mlnjGS-51" value="" style="endArrow=none;html=1;rounded=0;exitX=0.5;exitY=0;exitDx=0;exitDy=0;entryX=0.5;entryY=1;entryDx=0;entryDy=0;" parent="1" source="JjqBUWq5hYoa13mlnjGS-11" target="JjqBUWq5hYoa13mlnjGS-3" edge="1">
          <mxGeometry width="50" height="50" relative="1" as="geometry">
            <mxPoint x="1000" y="250" as="sourcePoint" />
            <mxPoint x="1050" y="200" as="targetPoint" />
          </mxGeometry>
        </mxCell>
        <mxCell id="JjqBUWq5hYoa13mlnjGS-52" value="" style="endArrow=none;html=1;rounded=0;entryX=0;entryY=0.5;entryDx=0;entryDy=0;exitX=1;exitY=0.5;exitDx=0;exitDy=0;" parent="1" source="JjqBUWq5hYoa13mlnjGS-4" target="JjqBUWq5hYoa13mlnjGS-21" edge="1">
          <mxGeometry width="50" height="50" relative="1" as="geometry">
            <mxPoint x="1000" y="250" as="sourcePoint" />
            <mxPoint x="1050" y="200" as="targetPoint" />
          </mxGeometry>
        </mxCell>
        <mxCell id="JjqBUWq5hYoa13mlnjGS-53" value="" style="endArrow=none;html=1;rounded=0;entryX=0;entryY=0.5;entryDx=0;entryDy=0;exitX=1;exitY=0.5;exitDx=0;exitDy=0;" parent="1" source="JjqBUWq5hYoa13mlnjGS-4" target="JjqBUWq5hYoa13mlnjGS-20" edge="1">
          <mxGeometry width="50" height="50" relative="1" as="geometry">
            <mxPoint x="1000" y="250" as="sourcePoint" />
            <mxPoint x="1050" y="200" as="targetPoint" />
          </mxGeometry>
        </mxCell>
        <mxCell id="JjqBUWq5hYoa13mlnjGS-54" value="" style="endArrow=none;html=1;rounded=0;entryX=0;entryY=0.5;entryDx=0;entryDy=0;exitX=1;exitY=0.5;exitDx=0;exitDy=0;" parent="1" source="JjqBUWq5hYoa13mlnjGS-4" target="JjqBUWq5hYoa13mlnjGS-17" edge="1">
          <mxGeometry width="50" height="50" relative="1" as="geometry">
            <mxPoint x="1000" y="250" as="sourcePoint" />
            <mxPoint x="1050" y="200" as="targetPoint" />
          </mxGeometry>
        </mxCell>
        <mxCell id="JjqBUWq5hYoa13mlnjGS-55" value="" style="endArrow=none;html=1;rounded=0;entryX=0;entryY=1;entryDx=0;entryDy=0;exitX=1;exitY=0.5;exitDx=0;exitDy=0;" parent="1" source="JjqBUWq5hYoa13mlnjGS-4" target="JjqBUWq5hYoa13mlnjGS-16" edge="1">
          <mxGeometry width="50" height="50" relative="1" as="geometry">
            <mxPoint x="1000" y="250" as="sourcePoint" />
            <mxPoint x="1050" y="200" as="targetPoint" />
          </mxGeometry>
        </mxCell>
        <mxCell id="JjqBUWq5hYoa13mlnjGS-56" value="" style="endArrow=none;html=1;rounded=0;entryX=0.5;entryY=1;entryDx=0;entryDy=0;exitX=1;exitY=0.5;exitDx=0;exitDy=0;" parent="1" source="JjqBUWq5hYoa13mlnjGS-4" target="JjqBUWq5hYoa13mlnjGS-22" edge="1">
          <mxGeometry width="50" height="50" relative="1" as="geometry">
            <mxPoint x="1000" y="250" as="sourcePoint" />
            <mxPoint x="1050" y="200" as="targetPoint" />
          </mxGeometry>
        </mxCell>
        <mxCell id="JjqBUWq5hYoa13mlnjGS-57" value="" style="endArrow=none;html=1;rounded=0;entryX=0.5;entryY=1;entryDx=0;entryDy=0;exitX=0.5;exitY=0;exitDx=0;exitDy=0;" parent="1" source="JjqBUWq5hYoa13mlnjGS-4" target="JjqBUWq5hYoa13mlnjGS-18" edge="1">
          <mxGeometry width="50" height="50" relative="1" as="geometry">
            <mxPoint x="1000" y="250" as="sourcePoint" />
            <mxPoint x="1050" y="200" as="targetPoint" />
          </mxGeometry>
        </mxCell>
        <mxCell id="JjqBUWq5hYoa13mlnjGS-58" value="" style="endArrow=none;html=1;rounded=0;entryX=0.5;entryY=1;entryDx=0;entryDy=0;exitX=0.5;exitY=0;exitDx=0;exitDy=0;" parent="1" source="JjqBUWq5hYoa13mlnjGS-4" target="JjqBUWq5hYoa13mlnjGS-15" edge="1">
          <mxGeometry width="50" height="50" relative="1" as="geometry">
            <mxPoint x="1000" y="250" as="sourcePoint" />
            <mxPoint x="1050" y="200" as="targetPoint" />
          </mxGeometry>
        </mxCell>
        <mxCell id="JjqBUWq5hYoa13mlnjGS-60" value="" style="endArrow=none;html=1;rounded=0;entryX=0;entryY=0.5;entryDx=0;entryDy=0;exitX=1;exitY=0.5;exitDx=0;exitDy=0;" parent="1" source="JjqBUWq5hYoa13mlnjGS-2" target="JjqBUWq5hYoa13mlnjGS-28" edge="1">
          <mxGeometry width="50" height="50" relative="1" as="geometry">
            <mxPoint x="840" y="600" as="sourcePoint" />
            <mxPoint x="890" y="550" as="targetPoint" />
          </mxGeometry>
        </mxCell>
        <mxCell id="JjqBUWq5hYoa13mlnjGS-61" value="" style="endArrow=none;html=1;rounded=0;entryX=0;entryY=0;entryDx=0;entryDy=0;exitX=1;exitY=0.5;exitDx=0;exitDy=0;" parent="1" source="JjqBUWq5hYoa13mlnjGS-2" target="JjqBUWq5hYoa13mlnjGS-24" edge="1">
          <mxGeometry width="50" height="50" relative="1" as="geometry">
            <mxPoint x="840" y="600" as="sourcePoint" />
            <mxPoint x="890" y="550" as="targetPoint" />
          </mxGeometry>
        </mxCell>
        <mxCell id="JjqBUWq5hYoa13mlnjGS-62" value="" style="endArrow=none;html=1;rounded=0;entryX=0;entryY=0.5;entryDx=0;entryDy=0;exitX=1;exitY=0.5;exitDx=0;exitDy=0;" parent="1" source="JjqBUWq5hYoa13mlnjGS-2" target="JjqBUWq5hYoa13mlnjGS-29" edge="1">
          <mxGeometry width="50" height="50" relative="1" as="geometry">
            <mxPoint x="840" y="600" as="sourcePoint" />
            <mxPoint x="890" y="550" as="targetPoint" />
          </mxGeometry>
        </mxCell>
        <mxCell id="JjqBUWq5hYoa13mlnjGS-63" value="&lt;font style=&quot;font-size: 18px;&quot;&gt;Compose&lt;/font&gt;" style="rhombus;whiteSpace=wrap;html=1;" parent="1" vertex="1">
          <mxGeometry x="290" y="655" width="100" height="100" as="geometry" />
        </mxCell>
        <mxCell id="JjqBUWq5hYoa13mlnjGS-64" value="" style="endArrow=none;html=1;rounded=0;entryX=0.5;entryY=0;entryDx=0;entryDy=0;exitX=0.5;exitY=1;exitDx=0;exitDy=0;" parent="1" source="JjqBUWq5hYoa13mlnjGS-1" target="JjqBUWq5hYoa13mlnjGS-63" edge="1">
          <mxGeometry relative="1" as="geometry">
            <mxPoint x="430" y="540" as="sourcePoint" />
            <mxPoint x="820" y="540" as="targetPoint" />
          </mxGeometry>
        </mxCell>
        <mxCell id="JjqBUWq5hYoa13mlnjGS-65" value="" style="endArrow=none;html=1;rounded=0;entryX=0.5;entryY=0;entryDx=0;entryDy=0;exitX=0.5;exitY=1;exitDx=0;exitDy=0;" parent="1" source="JjqBUWq5hYoa13mlnjGS-63" target="JjqBUWq5hYoa13mlnjGS-3" edge="1">
          <mxGeometry relative="1" as="geometry">
            <mxPoint x="420" y="180" as="sourcePoint" />
            <mxPoint x="810" y="180" as="targetPoint" />
          </mxGeometry>
        </mxCell>
        <mxCell id="JjqBUWq5hYoa13mlnjGS-67" value="&lt;font style=&quot;font-size: 18px;&quot;&gt;N&lt;/font&gt;" style="resizable=0;html=1;whiteSpace=wrap;align=right;verticalAlign=bottom;" parent="1" connectable="0" vertex="1">
          <mxGeometry x="360" y="220" as="geometry">
            <mxPoint x="4" y="368" as="offset" />
          </mxGeometry>
        </mxCell>
        <mxCell id="JjqBUWq5hYoa13mlnjGS-68" value="&lt;font style=&quot;font-size: 18px;&quot;&gt;M&lt;/font&gt;" style="text;html=1;strokeColor=none;fillColor=none;align=center;verticalAlign=middle;whiteSpace=wrap;rounded=0;" parent="1" vertex="1">
          <mxGeometry x="330" y="810" width="60" height="30" as="geometry" />
        </mxCell>
        <mxCell id="JjqBUWq5hYoa13mlnjGS-69" value="&lt;font style=&quot;font-size: 18px;&quot;&gt;Manage&lt;/font&gt;" style="rhombus;whiteSpace=wrap;html=1;rotation=45;direction=north;" parent="1" vertex="1">
          <mxGeometry x="560" y="670" width="100" height="100" as="geometry" />
        </mxCell>
        <mxCell id="JjqBUWq5hYoa13mlnjGS-70" value="" style="endArrow=none;html=1;rounded=0;entryX=1;entryY=1;entryDx=0;entryDy=0;exitX=0.5;exitY=0;exitDx=0;exitDy=0;" parent="1" source="JjqBUWq5hYoa13mlnjGS-69" target="JjqBUWq5hYoa13mlnjGS-1" edge="1">
          <mxGeometry width="50" height="50" relative="1" as="geometry">
            <mxPoint x="570" y="700" as="sourcePoint" />
            <mxPoint x="810" y="540" as="targetPoint" />
          </mxGeometry>
        </mxCell>
        <mxCell id="JjqBUWq5hYoa13mlnjGS-71" value="" style="endArrow=none;html=1;rounded=0;exitX=0;exitY=0;exitDx=0;exitDy=0;entryX=0.5;entryY=1;entryDx=0;entryDy=0;" parent="1" source="JjqBUWq5hYoa13mlnjGS-2" target="JjqBUWq5hYoa13mlnjGS-69" edge="1">
          <mxGeometry width="50" height="50" relative="1" as="geometry">
            <mxPoint x="760" y="590" as="sourcePoint" />
            <mxPoint x="810" y="540" as="targetPoint" />
          </mxGeometry>
        </mxCell>
        <mxCell id="JjqBUWq5hYoa13mlnjGS-75" value="" style="endArrow=none;html=1;rounded=0;exitX=0;exitY=0.5;exitDx=0;exitDy=0;entryX=0;entryY=1;entryDx=0;entryDy=0;" parent="1" source="3nbygFvnjxss7Tl757H9-19" target="3nbygFvnjxss7Tl757H9-1" edge="1">
          <mxGeometry width="50" height="50" relative="1" as="geometry">
            <mxPoint x="760" y="590" as="sourcePoint" />
            <mxPoint x="1301" y="550" as="targetPoint" />
          </mxGeometry>
        </mxCell>
        <mxCell id="JjqBUWq5hYoa13mlnjGS-77" value="" style="endArrow=none;html=1;rounded=0;entryX=0.5;entryY=1;entryDx=0;entryDy=0;exitX=0.5;exitY=0;exitDx=0;exitDy=0;" parent="1" source="3nbygFvnjxss7Tl757H9-1" target="JjqBUWq5hYoa13mlnjGS-4" edge="1">
          <mxGeometry width="50" height="50" relative="1" as="geometry">
            <mxPoint x="1320" y="450" as="sourcePoint" />
            <mxPoint x="810" y="540" as="targetPoint" />
          </mxGeometry>
        </mxCell>
        <mxCell id="JjqBUWq5hYoa13mlnjGS-78" value="&lt;font style=&quot;font-size: 18px;&quot;&gt;Register_Day&lt;/font&gt;" style="ellipse;whiteSpace=wrap;html=1;" parent="1" vertex="1">
          <mxGeometry x="1530" y="410" width="120" height="80" as="geometry" />
        </mxCell>
        <mxCell id="JjqBUWq5hYoa13mlnjGS-79" value="&lt;font style=&quot;font-size: 18px;&quot;&gt;R_Exdate&lt;/font&gt;" style="ellipse;whiteSpace=wrap;html=1;" parent="1" vertex="1">
          <mxGeometry x="1530" y="545" width="120" height="80" as="geometry" />
        </mxCell>
        <mxCell id="JjqBUWq5hYoa13mlnjGS-80" value="" style="endArrow=none;html=1;rounded=0;entryX=0;entryY=0.5;entryDx=0;entryDy=0;exitX=1;exitY=0.5;exitDx=0;exitDy=0;" parent="1" source="3nbygFvnjxss7Tl757H9-1" target="JjqBUWq5hYoa13mlnjGS-79" edge="1">
          <mxGeometry width="50" height="50" relative="1" as="geometry">
            <mxPoint x="1351" y="500" as="sourcePoint" />
            <mxPoint x="810" y="540" as="targetPoint" />
          </mxGeometry>
        </mxCell>
        <mxCell id="JjqBUWq5hYoa13mlnjGS-81" value="" style="endArrow=none;html=1;rounded=0;entryX=0;entryY=0.5;entryDx=0;entryDy=0;exitX=1;exitY=0.5;exitDx=0;exitDy=0;" parent="1" source="3nbygFvnjxss7Tl757H9-1" target="JjqBUWq5hYoa13mlnjGS-78" edge="1">
          <mxGeometry width="50" height="50" relative="1" as="geometry">
            <mxPoint x="1351" y="500" as="sourcePoint" />
            <mxPoint x="810" y="540" as="targetPoint" />
          </mxGeometry>
        </mxCell>
        <mxCell id="JjqBUWq5hYoa13mlnjGS-86" value="&lt;span style=&quot;font-size: 18px;&quot;&gt;1&lt;/span&gt;" style="resizable=0;html=1;whiteSpace=wrap;align=right;verticalAlign=bottom;" parent="1" connectable="0" vertex="1">
          <mxGeometry x="1340" y="160" as="geometry">
            <mxPoint x="1" y="60" as="offset" />
          </mxGeometry>
        </mxCell>
        <mxCell id="JjqBUWq5hYoa13mlnjGS-87" value="&lt;span style=&quot;font-size: 18px;&quot;&gt;M&lt;br&gt;&lt;/span&gt;" style="text;html=1;strokeColor=none;fillColor=none;align=center;verticalAlign=middle;whiteSpace=wrap;rounded=0;" parent="1" vertex="1">
          <mxGeometry x="860" y="820" width="60" height="30" as="geometry" />
        </mxCell>
        <mxCell id="JjqBUWq5hYoa13mlnjGS-92" value="&lt;font style=&quot;font-size: 18px;&quot;&gt;Borrow_ID&lt;/font&gt;" style="ellipse;whiteSpace=wrap;html=1;" parent="1" vertex="1">
          <mxGeometry x="560" y="100" width="120" height="80" as="geometry" />
        </mxCell>
        <mxCell id="JjqBUWq5hYoa13mlnjGS-93" value="" style="endArrow=none;html=1;rounded=0;entryX=0;entryY=0.5;entryDx=0;entryDy=0;exitX=1;exitY=0.5;exitDx=0;exitDy=0;" parent="1" source="JjqBUWq5hYoa13mlnjGS-92" target="3nbygFvnjxss7Tl757H9-3" edge="1">
          <mxGeometry width="50" height="50" relative="1" as="geometry">
            <mxPoint x="760" y="580" as="sourcePoint" />
            <mxPoint x="830" y="190" as="targetPoint" />
          </mxGeometry>
        </mxCell>
        <mxCell id="-tCtxU6f3kJr9sDDmDR7-1" value="&lt;span style=&quot;font-size: 18px;&quot;&gt;CCCD&lt;/span&gt;" style="ellipse;whiteSpace=wrap;html=1;" parent="1" vertex="1">
          <mxGeometry x="1400" y="297" width="120" height="80" as="geometry" />
        </mxCell>
        <mxCell id="-tCtxU6f3kJr9sDDmDR7-2" value="" style="endArrow=none;html=1;rounded=0;hachureGap=4;fontFamily=Architects Daughter;fontSource=https%3A%2F%2Ffonts.googleapis.com%2Fcss%3Ffamily%3DArchitects%2BDaughter;fontSize=16;entryX=0;entryY=0;entryDx=0;entryDy=0;" parent="1" target="-tCtxU6f3kJr9sDDmDR7-1" edge="1">
          <mxGeometry relative="1" as="geometry">
            <mxPoint x="1360" y="155" as="sourcePoint" />
            <mxPoint x="1387" y="324" as="targetPoint" />
            <Array as="points" />
          </mxGeometry>
        </mxCell>
        <mxCell id="G2DrQxHBMWHBgHi1OdvL-3" value="&lt;span style=&quot;font-size: 18px;&quot;&gt;N&lt;/span&gt;" style="text;html=1;strokeColor=none;fillColor=none;align=center;verticalAlign=middle;whiteSpace=wrap;rounded=0;" parent="1" vertex="1">
          <mxGeometry x="280" y="450" width="60" height="30" as="geometry" />
        </mxCell>
        <mxCell id="G2DrQxHBMWHBgHi1OdvL-5" value="&lt;span style=&quot;font-size: 18px;&quot;&gt;1&lt;br&gt;&lt;/span&gt;" style="text;html=1;strokeColor=none;fillColor=none;align=center;verticalAlign=middle;whiteSpace=wrap;rounded=0;" parent="1" vertex="1">
          <mxGeometry x="1310" y="450" width="60" height="30" as="geometry" />
        </mxCell>
        <mxCell id="Ylfz6GqyDDNLGIRJDEr9-3" value="&lt;font style=&quot;font-size: 18px;&quot;&gt;Borrow_&lt;br style=&quot;border-color: var(--border-color); font-size: 18px;&quot;&gt;&lt;span style=&quot;font-size: 18px;&quot;&gt;Day&lt;/span&gt;&lt;/font&gt;" style="ellipse;whiteSpace=wrap;html=1;" parent="1" vertex="1">
          <mxGeometry x="560" width="120" height="80" as="geometry" />
        </mxCell>
        <mxCell id="Ylfz6GqyDDNLGIRJDEr9-4" value="&lt;font style=&quot;font-size: 18px;&quot;&gt;Expiration&lt;br style=&quot;border-color: var(--border-color);&quot;&gt;_Date&lt;/font&gt;" style="ellipse;whiteSpace=wrap;html=1;" parent="1" vertex="1">
          <mxGeometry x="690" width="120" height="80" as="geometry" />
        </mxCell>
        <mxCell id="Ylfz6GqyDDNLGIRJDEr9-5" value="&lt;span style=&quot;font-size: 18px;&quot;&gt;Return_Day&lt;/span&gt;" style="ellipse;whiteSpace=wrap;html=1;" parent="1" vertex="1">
          <mxGeometry x="840" width="120" height="80" as="geometry" />
        </mxCell>
        <mxCell id="Ylfz6GqyDDNLGIRJDEr9-6" value="" style="endArrow=none;html=1;rounded=0;entryX=0.5;entryY=1;entryDx=0;entryDy=0;exitX=0.5;exitY=0;exitDx=0;exitDy=0;" parent="1" source="3nbygFvnjxss7Tl757H9-3" target="Ylfz6GqyDDNLGIRJDEr9-5" edge="1">
          <mxGeometry width="50" height="50" relative="1" as="geometry">
            <mxPoint x="800" y="480" as="sourcePoint" />
            <mxPoint x="850" y="430" as="targetPoint" />
          </mxGeometry>
        </mxCell>
        <mxCell id="Ylfz6GqyDDNLGIRJDEr9-7" value="" style="endArrow=none;html=1;rounded=0;entryX=0.5;entryY=1;entryDx=0;entryDy=0;exitX=0.5;exitY=0;exitDx=0;exitDy=0;" parent="1" source="3nbygFvnjxss7Tl757H9-3" target="Ylfz6GqyDDNLGIRJDEr9-4" edge="1">
          <mxGeometry width="50" height="50" relative="1" as="geometry">
            <mxPoint x="800" y="480" as="sourcePoint" />
            <mxPoint x="850" y="430" as="targetPoint" />
          </mxGeometry>
        </mxCell>
        <mxCell id="Ylfz6GqyDDNLGIRJDEr9-8" value="" style="endArrow=none;html=1;rounded=0;exitX=1;exitY=1;exitDx=0;exitDy=0;entryX=0.5;entryY=0;entryDx=0;entryDy=0;" parent="1" source="Ylfz6GqyDDNLGIRJDEr9-3" target="3nbygFvnjxss7Tl757H9-3" edge="1">
          <mxGeometry width="50" height="50" relative="1" as="geometry">
            <mxPoint x="800" y="480" as="sourcePoint" />
            <mxPoint x="850" y="430" as="targetPoint" />
          </mxGeometry>
        </mxCell>
        <mxCell id="Ylfz6GqyDDNLGIRJDEr9-12" value="&lt;span style=&quot;font-size: 18px;&quot;&gt;&lt;b&gt;Categories&lt;/b&gt;&lt;/span&gt;" style="rounded=0;whiteSpace=wrap;html=1;" parent="1" vertex="1">
          <mxGeometry x="280" y="145" width="120" height="60" as="geometry" />
        </mxCell>
        <mxCell id="Ylfz6GqyDDNLGIRJDEr9-13" value="&lt;span style=&quot;font-size: 18px;&quot;&gt;Category_&lt;br&gt;Name&lt;/span&gt;" style="ellipse;whiteSpace=wrap;html=1;" parent="1" vertex="1">
          <mxGeometry x="400" width="120" height="80" as="geometry" />
        </mxCell>
        <mxCell id="Ylfz6GqyDDNLGIRJDEr9-14" value="&lt;span style=&quot;font-size: 18px;&quot;&gt;Catgory_ID&lt;/span&gt;" style="ellipse;whiteSpace=wrap;html=1;" parent="1" vertex="1">
          <mxGeometry x="160" width="120" height="80" as="geometry" />
        </mxCell>
        <mxCell id="Ylfz6GqyDDNLGIRJDEr9-15" value="" style="endArrow=none;html=1;rounded=0;exitX=0.5;exitY=0;exitDx=0;exitDy=0;entryX=0.5;entryY=1;entryDx=0;entryDy=0;" parent="1" source="Ylfz6GqyDDNLGIRJDEr9-12" target="Ylfz6GqyDDNLGIRJDEr9-13" edge="1">
          <mxGeometry width="50" height="50" relative="1" as="geometry">
            <mxPoint x="800" y="470" as="sourcePoint" />
            <mxPoint x="850" y="420" as="targetPoint" />
          </mxGeometry>
        </mxCell>
        <mxCell id="Ylfz6GqyDDNLGIRJDEr9-16" value="" style="endArrow=none;html=1;rounded=0;exitX=0.5;exitY=1;exitDx=0;exitDy=0;entryX=0.5;entryY=0;entryDx=0;entryDy=0;" parent="1" source="Ylfz6GqyDDNLGIRJDEr9-14" target="Ylfz6GqyDDNLGIRJDEr9-12" edge="1">
          <mxGeometry width="50" height="50" relative="1" as="geometry">
            <mxPoint x="800" y="470" as="sourcePoint" />
            <mxPoint x="850" y="420" as="targetPoint" />
          </mxGeometry>
        </mxCell>
        <mxCell id="Ylfz6GqyDDNLGIRJDEr9-18" value="&lt;font style=&quot;font-size: 18px;&quot;&gt;Classify&lt;/font&gt;" style="rhombus;whiteSpace=wrap;html=1;" parent="1" vertex="1">
          <mxGeometry x="290" y="300" width="100" height="100" as="geometry" />
        </mxCell>
        <mxCell id="Ylfz6GqyDDNLGIRJDEr9-19" value="" style="endArrow=none;html=1;rounded=0;exitX=0.5;exitY=1;exitDx=0;exitDy=0;entryX=0.5;entryY=0;entryDx=0;entryDy=0;" parent="1" source="Ylfz6GqyDDNLGIRJDEr9-12" target="Ylfz6GqyDDNLGIRJDEr9-18" edge="1">
          <mxGeometry width="50" height="50" relative="1" as="geometry">
            <mxPoint x="800" y="470" as="sourcePoint" />
            <mxPoint x="850" y="420" as="targetPoint" />
          </mxGeometry>
        </mxCell>
        <mxCell id="Ylfz6GqyDDNLGIRJDEr9-20" value="" style="endArrow=none;html=1;rounded=0;exitX=0.5;exitY=0;exitDx=0;exitDy=0;entryX=0.5;entryY=1;entryDx=0;entryDy=0;" parent="1" source="JjqBUWq5hYoa13mlnjGS-1" target="Ylfz6GqyDDNLGIRJDEr9-18" edge="1">
          <mxGeometry width="50" height="50" relative="1" as="geometry">
            <mxPoint x="800" y="470" as="sourcePoint" />
            <mxPoint x="850" y="420" as="targetPoint" />
          </mxGeometry>
        </mxCell>
        <mxCell id="Ylfz6GqyDDNLGIRJDEr9-21" value="&lt;font style=&quot;font-size: 18px;&quot;&gt;M&lt;/font&gt;" style="text;html=1;strokeColor=none;fillColor=none;align=center;verticalAlign=middle;whiteSpace=wrap;rounded=0;" parent="1" vertex="1">
          <mxGeometry x="280" y="217" width="60" height="30" as="geometry" />
        </mxCell>
        <mxCell id="Ylfz6GqyDDNLGIRJDEr9-22" value="&lt;font style=&quot;font-size: 18px;&quot;&gt;M&lt;/font&gt;" style="text;html=1;strokeColor=none;fillColor=none;align=center;verticalAlign=middle;whiteSpace=wrap;rounded=0;" parent="1" vertex="1">
          <mxGeometry x="750" y="200" width="60" height="30" as="geometry" />
        </mxCell>
        <mxCell id="Ylfz6GqyDDNLGIRJDEr9-23" value="&lt;font style=&quot;font-size: 18px;&quot;&gt;M&lt;/font&gt;" style="text;html=1;strokeColor=none;fillColor=none;align=center;verticalAlign=middle;whiteSpace=wrap;rounded=0;" parent="1" vertex="1">
          <mxGeometry x="370" y="560" width="60" height="30" as="geometry" />
        </mxCell>
        <mxCell id="Ylfz6GqyDDNLGIRJDEr9-24" value="&lt;span style=&quot;font-size: 18px;&quot;&gt;N&lt;/span&gt;" style="text;html=1;strokeColor=none;fillColor=none;align=center;verticalAlign=middle;whiteSpace=wrap;rounded=0;" parent="1" vertex="1">
          <mxGeometry x="895" y="170" width="60" height="30" as="geometry" />
        </mxCell>
        <mxCell id="Ylfz6GqyDDNLGIRJDEr9-28" value="&lt;font style=&quot;font-size: 18px;&quot;&gt;Language&lt;/font&gt;" style="ellipse;whiteSpace=wrap;html=1;" parent="1" vertex="1">
          <mxGeometry x="10" y="330" width="120" height="80" as="geometry" />
        </mxCell>
        <mxCell id="Ylfz6GqyDDNLGIRJDEr9-29" value="&lt;font style=&quot;font-size: 18px;&quot;&gt;Publishing_&lt;br&gt;Year&lt;/font&gt;" style="ellipse;whiteSpace=wrap;html=1;" parent="1" vertex="1">
          <mxGeometry x="10" y="700" width="120" height="80" as="geometry" />
        </mxCell>
        <mxCell id="Ylfz6GqyDDNLGIRJDEr9-30" value="" style="endArrow=none;html=1;rounded=0;entryX=1;entryY=0.5;entryDx=0;entryDy=0;exitX=0;exitY=0.5;exitDx=0;exitDy=0;" parent="1" source="JjqBUWq5hYoa13mlnjGS-1" target="Ylfz6GqyDDNLGIRJDEr9-28" edge="1">
          <mxGeometry width="50" height="50" relative="1" as="geometry">
            <mxPoint x="290" y="525" as="sourcePoint" />
            <mxPoint x="140" y="290" as="targetPoint" />
          </mxGeometry>
        </mxCell>
        <mxCell id="Ylfz6GqyDDNLGIRJDEr9-31" value="" style="endArrow=none;html=1;rounded=0;entryX=1;entryY=0.5;entryDx=0;entryDy=0;exitX=0;exitY=0.5;exitDx=0;exitDy=0;" parent="1" source="JjqBUWq5hYoa13mlnjGS-1" target="Ylfz6GqyDDNLGIRJDEr9-29" edge="1">
          <mxGeometry width="50" height="50" relative="1" as="geometry">
            <mxPoint x="300" y="535" as="sourcePoint" />
            <mxPoint x="150" y="300" as="targetPoint" />
          </mxGeometry>
        </mxCell>
        <mxCell id="3nbygFvnjxss7Tl757H9-1" value="&lt;span style=&quot;font-size: 18px;&quot;&gt;&lt;b&gt;Cards&lt;/b&gt;&lt;/span&gt;" style="rounded=0;whiteSpace=wrap;html=1;" vertex="1" parent="1">
          <mxGeometry x="1241" y="485" width="120" height="60" as="geometry" />
        </mxCell>
        <mxCell id="3nbygFvnjxss7Tl757H9-3" value="&lt;span style=&quot;font-size: 18px;&quot;&gt;&lt;b&gt;Borrow_&lt;br&gt;Return&lt;/b&gt;&lt;/span&gt;" style="rounded=0;whiteSpace=wrap;html=1;" vertex="1" parent="1">
          <mxGeometry x="770" y="130" width="120" height="60" as="geometry" />
        </mxCell>
        <mxCell id="3nbygFvnjxss7Tl757H9-6" value="&lt;span style=&quot;font-size: 18px;&quot;&gt;Borrow&lt;/span&gt;" style="rhombus;whiteSpace=wrap;html=1;rotation=-45;" vertex="1" parent="1">
          <mxGeometry x="550" y="277" width="100" height="100" as="geometry" />
        </mxCell>
        <mxCell id="3nbygFvnjxss7Tl757H9-13" value="" style="endArrow=none;html=1;rounded=0;entryX=0;entryY=0.5;entryDx=0;entryDy=0;exitX=1;exitY=0;exitDx=0;exitDy=0;" edge="1" parent="1" source="JjqBUWq5hYoa13mlnjGS-1" target="3nbygFvnjxss7Tl757H9-6">
          <mxGeometry relative="1" as="geometry">
            <mxPoint x="410" y="525" as="sourcePoint" />
            <mxPoint x="790" y="525" as="targetPoint" />
          </mxGeometry>
        </mxCell>
        <mxCell id="3nbygFvnjxss7Tl757H9-14" value="" style="endArrow=none;html=1;rounded=0;exitX=0;exitY=1;exitDx=0;exitDy=0;entryX=1;entryY=0.5;entryDx=0;entryDy=0;" edge="1" parent="1" source="3nbygFvnjxss7Tl757H9-3" target="3nbygFvnjxss7Tl757H9-6">
          <mxGeometry relative="1" as="geometry">
            <mxPoint x="420" y="535" as="sourcePoint" />
            <mxPoint x="640" y="290" as="targetPoint" />
          </mxGeometry>
        </mxCell>
        <mxCell id="3nbygFvnjxss7Tl757H9-15" value="&lt;span style=&quot;font-size: 18px;&quot;&gt;Can&lt;/span&gt;" style="rhombus;whiteSpace=wrap;html=1;rotation=45;" vertex="1" parent="1">
          <mxGeometry x="1010" y="287" width="100" height="100" as="geometry" />
        </mxCell>
        <mxCell id="3nbygFvnjxss7Tl757H9-16" value="" style="endArrow=none;html=1;rounded=0;entryX=0;entryY=0;entryDx=0;entryDy=0;exitX=1;exitY=0.5;exitDx=0;exitDy=0;" edge="1" parent="1" source="3nbygFvnjxss7Tl757H9-15" target="3nbygFvnjxss7Tl757H9-1">
          <mxGeometry relative="1" as="geometry">
            <mxPoint x="890" y="525" as="sourcePoint" />
            <mxPoint x="1251" y="525" as="targetPoint" />
          </mxGeometry>
        </mxCell>
        <mxCell id="3nbygFvnjxss7Tl757H9-17" value="" style="endArrow=none;html=1;rounded=0;entryX=0;entryY=0.5;entryDx=0;entryDy=0;exitX=1;exitY=1;exitDx=0;exitDy=0;" edge="1" parent="1" source="3nbygFvnjxss7Tl757H9-3" target="3nbygFvnjxss7Tl757H9-15">
          <mxGeometry relative="1" as="geometry">
            <mxPoint x="900" y="535" as="sourcePoint" />
            <mxPoint x="1261" y="535" as="targetPoint" />
          </mxGeometry>
        </mxCell>
        <mxCell id="3nbygFvnjxss7Tl757H9-18" value="&lt;span style=&quot;font-size: 18px;&quot;&gt;Have&lt;/span&gt;" style="rhombus;whiteSpace=wrap;html=1;" vertex="1" parent="1">
          <mxGeometry x="1251" y="300" width="100" height="100" as="geometry" />
        </mxCell>
        <mxCell id="3nbygFvnjxss7Tl757H9-20" value="" style="endArrow=none;html=1;rounded=0;exitX=1;exitY=0;exitDx=0;exitDy=0;entryX=1;entryY=0.5;entryDx=0;entryDy=0;" edge="1" parent="1" source="JjqBUWq5hYoa13mlnjGS-2" target="3nbygFvnjxss7Tl757H9-19">
          <mxGeometry width="50" height="50" relative="1" as="geometry">
            <mxPoint x="1301" y="850" as="sourcePoint" />
            <mxPoint x="1301" y="545" as="targetPoint" />
          </mxGeometry>
        </mxCell>
        <mxCell id="3nbygFvnjxss7Tl757H9-19" value="&lt;span style=&quot;font-size: 18px;&quot;&gt;Manage&lt;br&gt;&lt;/span&gt;" style="rhombus;whiteSpace=wrap;html=1;rotation=-45;direction=west;" vertex="1" parent="1">
          <mxGeometry x="1000" y="670" width="100" height="100" as="geometry" />
        </mxCell>
        <mxCell id="3nbygFvnjxss7Tl757H9-21" value="&lt;span style=&quot;font-size: 18px;&quot;&gt;N&lt;/span&gt;" style="text;html=1;strokeColor=none;fillColor=none;align=center;verticalAlign=middle;whiteSpace=wrap;rounded=0;" vertex="1" parent="1">
          <mxGeometry x="1230" y="560" width="60" height="30" as="geometry" />
        </mxCell>
        <mxCell id="3nbygFvnjxss7Tl757H9-27" value="&lt;span style=&quot;font-size: 18px;&quot;&gt;1&lt;br&gt;&lt;/span&gt;" style="text;html=1;strokeColor=none;fillColor=none;align=center;verticalAlign=middle;whiteSpace=wrap;rounded=0;" vertex="1" parent="1">
          <mxGeometry x="1181" y="485" width="60" height="30" as="geometry" />
        </mxCell>
        <mxCell id="3nbygFvnjxss7Tl757H9-30" value="&lt;span style=&quot;font-size: 18px;&quot;&gt;N&lt;/span&gt;" style="text;html=1;strokeColor=none;fillColor=none;align=center;verticalAlign=middle;whiteSpace=wrap;rounded=0;" vertex="1" parent="1">
          <mxGeometry x="400" y="485" width="60" height="30" as="geometry" />
        </mxCell>
        <mxCell id="3nbygFvnjxss7Tl757H9-33" value="&lt;span style=&quot;font-size: 18px;&quot;&gt;N&lt;/span&gt;" style="text;html=1;strokeColor=none;fillColor=none;align=center;verticalAlign=middle;whiteSpace=wrap;rounded=0;" vertex="1" parent="1">
          <mxGeometry x="700" y="860" width="60" height="30" as="geometry" />
        </mxCell>
        <mxCell id="3nbygFvnjxss7Tl757H9-34" value="&lt;span style=&quot;font-size: 18px;&quot;&gt;Note&lt;/span&gt;" style="ellipse;whiteSpace=wrap;html=1;" vertex="1" parent="1">
          <mxGeometry x="970" y="50" width="120" height="80" as="geometry" />
        </mxCell>
        <mxCell id="3nbygFvnjxss7Tl757H9-35" value="" style="endArrow=none;html=1;rounded=0;entryX=0;entryY=0.5;entryDx=0;entryDy=0;exitX=0.5;exitY=0;exitDx=0;exitDy=0;" edge="1" parent="1" source="3nbygFvnjxss7Tl757H9-3" target="3nbygFvnjxss7Tl757H9-34">
          <mxGeometry width="50" height="50" relative="1" as="geometry">
            <mxPoint x="900" y="170" as="sourcePoint" />
            <mxPoint x="990" y="150" as="targetPoint" />
          </mxGeometry>
        </mxCell>
        <mxCell id="3nbygFvnjxss7Tl757H9-36" value="&lt;span style=&quot;font-size: 18px;&quot;&gt;Card_ID&lt;/span&gt;" style="ellipse;whiteSpace=wrap;html=1;" vertex="1" parent="1">
          <mxGeometry x="1530" y="680" width="120" height="80" as="geometry" />
        </mxCell>
        <mxCell id="3nbygFvnjxss7Tl757H9-37" value="" style="endArrow=none;html=1;rounded=0;entryX=0;entryY=0.5;entryDx=0;entryDy=0;exitX=1;exitY=0.5;exitDx=0;exitDy=0;" edge="1" parent="1" source="3nbygFvnjxss7Tl757H9-1" target="3nbygFvnjxss7Tl757H9-36">
          <mxGeometry width="50" height="50" relative="1" as="geometry">
            <mxPoint x="1330" y="610" as="sourcePoint" />
            <mxPoint x="1540" y="595" as="targetPoint" />
          </mxGeometry>
        </mxCell>
        <mxCell id="3nbygFvnjxss7Tl757H9-41" value="&lt;font style=&quot;font-size: 18px;&quot;&gt;Borrow_&lt;br&gt;Quantity&lt;/font&gt;" style="ellipse;whiteSpace=wrap;html=1;" vertex="1" parent="1">
          <mxGeometry x="440" y="190" width="120" height="80" as="geometry" />
        </mxCell>
        <mxCell id="3nbygFvnjxss7Tl757H9-42" value="" style="endArrow=none;html=1;rounded=0;entryX=0.5;entryY=0;entryDx=0;entryDy=0;exitX=0.5;exitY=1;exitDx=0;exitDy=0;" edge="1" parent="1" source="3nbygFvnjxss7Tl757H9-41" target="3nbygFvnjxss7Tl757H9-6">
          <mxGeometry width="50" height="50" relative="1" as="geometry">
            <mxPoint x="690" y="150" as="sourcePoint" />
            <mxPoint x="780" y="170" as="targetPoint" />
          </mxGeometry>
        </mxCell>
        <mxCell id="3nbygFvnjxss7Tl757H9-45" value="&lt;span style=&quot;font-size: 18px;&quot;&gt;Register&lt;/span&gt;" style="rhombus;whiteSpace=wrap;html=1;rotation=-60;direction=east;gradientColor=none;rounded=0;shadow=0;" vertex="1" parent="1">
          <mxGeometry x="960" y="500" width="100" height="100" as="geometry" />
        </mxCell>
        <mxCell id="3nbygFvnjxss7Tl757H9-50" value="" style="endArrow=none;html=1;rounded=0;exitX=0.5;exitY=0;exitDx=0;exitDy=0;entryX=0;entryY=0.5;entryDx=0;entryDy=0;" edge="1" parent="1" source="JjqBUWq5hYoa13mlnjGS-2" target="3nbygFvnjxss7Tl757H9-45">
          <mxGeometry width="50" height="50" relative="1" as="geometry">
            <mxPoint x="1095" y="695" as="sourcePoint" />
            <mxPoint x="1251" y="555" as="targetPoint" />
          </mxGeometry>
        </mxCell>
        <mxCell id="3nbygFvnjxss7Tl757H9-51" value="" style="endArrow=none;html=1;rounded=0;exitX=1;exitY=0.5;exitDx=0;exitDy=0;entryX=0;entryY=1;entryDx=0;entryDy=0;" edge="1" parent="1" source="3nbygFvnjxss7Tl757H9-45" target="JjqBUWq5hYoa13mlnjGS-4">
          <mxGeometry width="50" height="50" relative="1" as="geometry">
            <mxPoint x="840" y="870" as="sourcePoint" />
            <mxPoint x="1035" y="548" as="targetPoint" />
          </mxGeometry>
        </mxCell>
        <mxCell id="3nbygFvnjxss7Tl757H9-52" value="&lt;span style=&quot;font-size: 18px;&quot;&gt;1&lt;/span&gt;" style="text;html=1;strokeColor=none;fillColor=none;align=center;verticalAlign=middle;whiteSpace=wrap;rounded=0;" vertex="1" parent="1">
          <mxGeometry x="770" y="815" width="70" height="40" as="geometry" />
        </mxCell>
        <mxCell id="3nbygFvnjxss7Tl757H9-53" value="&lt;span style=&quot;font-size: 18px;&quot;&gt;N&lt;br&gt;&lt;/span&gt;" style="text;html=1;strokeColor=none;fillColor=none;align=center;verticalAlign=middle;whiteSpace=wrap;rounded=0;" vertex="1" parent="1">
          <mxGeometry x="1180" y="160" width="60" height="30" as="geometry" />
        </mxCell>
        <mxCell id="3nbygFvnjxss7Tl757H9-54" value="&lt;span style=&quot;font-size: 18px;&quot;&gt;Manage&lt;/span&gt;" style="rhombus;whiteSpace=wrap;html=1;rotation=0;direction=east;gradientColor=none;rounded=0;shadow=0;" vertex="1" parent="1">
          <mxGeometry x="780" y="465" width="100" height="100" as="geometry" />
        </mxCell>
        <mxCell id="3nbygFvnjxss7Tl757H9-55" value="" style="endArrow=none;html=1;rounded=0;exitX=0.5;exitY=0;exitDx=0;exitDy=0;entryX=0.5;entryY=1;entryDx=0;entryDy=0;" edge="1" parent="1" source="JjqBUWq5hYoa13mlnjGS-2" target="3nbygFvnjxss7Tl757H9-54">
          <mxGeometry width="50" height="50" relative="1" as="geometry">
            <mxPoint x="840" y="870" as="sourcePoint" />
            <mxPoint x="995" y="603" as="targetPoint" />
          </mxGeometry>
        </mxCell>
        <mxCell id="3nbygFvnjxss7Tl757H9-56" value="" style="endArrow=none;html=1;rounded=0;exitX=0.5;exitY=0;exitDx=0;exitDy=0;entryX=0.5;entryY=1;entryDx=0;entryDy=0;" edge="1" parent="1" source="3nbygFvnjxss7Tl757H9-54" target="3nbygFvnjxss7Tl757H9-3">
          <mxGeometry width="50" height="50" relative="1" as="geometry">
            <mxPoint x="850" y="880" as="sourcePoint" />
            <mxPoint x="1005" y="613" as="targetPoint" />
          </mxGeometry>
        </mxCell>
        <mxCell id="3nbygFvnjxss7Tl757H9-57" value="&lt;span style=&quot;font-size: 18px;&quot;&gt;1&lt;/span&gt;" style="text;html=1;strokeColor=none;fillColor=none;align=center;verticalAlign=middle;whiteSpace=wrap;rounded=0;" vertex="1" parent="1">
          <mxGeometry x="850" y="780" width="70" height="40" as="geometry" />
        </mxCell>
        <mxCell id="3nbygFvnjxss7Tl757H9-59" value="&lt;span style=&quot;font-size: 18px;&quot;&gt;N&lt;/span&gt;" style="text;html=1;strokeColor=none;fillColor=none;align=center;verticalAlign=middle;whiteSpace=wrap;rounded=0;" vertex="1" parent="1">
          <mxGeometry x="840" y="205" width="60" height="30" as="geometry" />
        </mxCell>
      </root>
    </mxGraphModel>
  </diagram>
</mxfile>
